name C:/MyDriveSym/Projects/mobilecap/Data\Session20210819_0002\mocap\ForceDataProcessed\walkingTS3_forces.mot
datacolumns 19
datarows 19
range 0.35200000 0.36100000
endheader 
time	R_ground_force_vx	R_ground_force_vy	R_ground_force_vz	R_ground_force_px	R_ground_force_py	R_ground_force_pz	R_ground_torque_x	R_ground_torque_y	R_ground_torque_z	L_ground_force_vx	L_ground_force_vy	L_ground_force_vz	L_ground_force_px	L_ground_force_py	L_ground_force_pz	L_ground_torque_x	L_ground_torque_y	L_ground_torque_z	
          0.35200000	        -15.81268600	        455.90854500	        -18.76895800	          0.15748500	          0.00600000	         -0.17078700	          0.00000000	         -2.11099900	          0.00000000	          0.00000000	          0.00000000	          0.00000000	          0.62191800	          0.00000000	         -0.29680900	          0.00000000	          0.00000000	          0.00000000	
          0.35250000	        -15.64893800	        455.82160300	        -18.79009700	          0.15767200	          0.00600000	         -0.17077300	          0.00000000	         -2.11791100	          0.00000000	          0.00000000	          0.00000000	          0.00000000	          0.62191800	          0.00000000	         -0.29680900	          0.00000000	          0.00000000	          0.00000000	
          0.35300000	        -15.48589800	        455.74210100	        -18.81162200	          0.15785900	          0.00600000	         -0.17075800	          0.00000000	         -2.12484600	          0.00000000	          0.00000000	          0.00000000	          0.00000000	          0.62191800	          0.00000000	         -0.29680900	          0.00000000	          0.00000000	          0.00000000	
          0.35350000	        -15.32355600	        455.67003300	        -18.83353400	          0.15804600	          0.00600000	         -0.17074300	          0.00000000	         -2.13180300	          0.00000000	          0.00000000	          0.00000000	          0.00000000	          0.62191800	          0.00000000	         -0.29680900	          0.00000000	          0.00000000	          0.00000000	
          0.35400000	        -15.16190200	        455.60539700	        -18.85583100	          0.15823400	          0.00600000	         -0.17072800	          0.00000000	         -2.13878200	          0.00000000	          0.00000000	          0.00000000	          0.00000000	          0.62191800	          0.00000000	         -0.29680900	          0.00000000	          0.00000000	          0.00000000	
          0.35450000	        -15.00092600	        455.54818600	        -18.87851200	          0.15842100	          0.00600000	         -0.17071200	          0.00000000	         -2.14578400	          0.00000000	          0.00000000	          0.00000000	          0.00000000	          0.62191800	          0.00000000	         -0.29680900	          0.00000000	          0.00000000	          0.00000000	
          0.35500000	        -14.84061800	        455.49839700	        -18.90157700	          0.15860900	          0.00600000	         -0.17069700	          0.00000000	         -2.15280900	          0.00000000	          0.00000000	          0.00000000	          0.00000000	          0.62191800	          0.00000000	         -0.29680900	          0.00000000	          0.00000000	          0.00000000	
          0.35550000	        -14.68096800	        455.45602200	        -18.92502600	          0.15879700	          0.00600000	         -0.17068100	          0.00000000	         -2.15985800	          0.00000000	          0.00000000	          0.00000000	          0.00000000	          0.62191800	          0.00000000	         -0.29680900	          0.00000000	          0.00000000	          0.00000000	
          0.35600000	        -14.52196600	        455.42105700	        -18.94885600	          0.15898500	          0.00600000	         -0.17066600	          0.00000000	         -2.16693000	          0.00000000	          0.00000000	          0.00000000	          0.00000000	          0.62191800	          0.00000000	         -0.29680900	          0.00000000	          0.00000000	          0.00000000	
          0.35650000	        -14.36360300	        455.39349400	        -18.97306900	          0.15917300	          0.00600000	         -0.17065000	          0.00000000	         -2.17402600	          0.00000000	          0.00000000	          0.00000000	          0.00000000	          0.62191800	          0.00000000	         -0.29680900	          0.00000000	          0.00000000	          0.00000000	
          0.35700000	        -14.20586700	        455.37332600	        -18.99766200	          0.15936100	          0.00600000	         -0.17063400	          0.00000000	         -2.18114700	          0.00000000	          0.00000000	          0.00000000	          0.00000000	          0.62191800	          0.00000000	         -0.29680900	          0.00000000	          0.00000000	          0.00000000	
          0.35750000	        -14.04874900	        455.36054700	        -19.02263500	          0.15954900	          0.00600000	         -0.17061800	          0.00000000	         -2.18829200	          0.00000000	          0.00000000	          0.00000000	          0.00000000	          0.62191800	          0.00000000	         -0.29680900	          0.00000000	          0.00000000	          0.00000000	
          0.35800000	        -13.89223900	        455.35514700	        -19.04798900	          0.15973700	          0.00600000	         -0.17060100	          0.00000000	         -2.19546100	          0.00000000	          0.00000000	          0.00000000	          0.00000000	          0.62191800	          0.00000000	         -0.29680900	          0.00000000	          0.00000000	          0.00000000	
          0.35850000	        -13.73632600	        455.35712000	        -19.07372100	          0.15992600	          0.00600000	         -0.17058500	          0.00000000	         -2.20265600	          0.00000000	          0.00000000	          0.00000000	          0.00000000	          0.62191800	          0.00000000	         -0.29680900	          0.00000000	          0.00000000	          0.00000000	
          0.35900000	        -13.58100000	        455.36645600	        -19.09983200	          0.16011400	          0.00600000	         -0.17056800	          0.00000000	         -2.20987600	          0.00000000	          0.00000000	          0.00000000	          0.00000000	          0.62191800	          0.00000000	         -0.29680900	          0.00000000	          0.00000000	          0.00000000	
          0.35950000	        -13.42625100	        455.38314600	        -19.12632000	          0.16030300	          0.00600000	         -0.17055200	          0.00000000	         -2.21712200	          0.00000000	          0.00000000	          0.00000000	          0.00000000	          0.62191800	          0.00000000	         -0.29680900	          0.00000000	          0.00000000	          0.00000000	
          0.36000000	        -13.27206800	        455.40718100	        -19.15318600	          0.16049200	          0.00600000	         -0.17053500	          0.00000000	         -2.22439300	          0.00000000	          0.00000000	          0.00000000	          0.00000000	          0.62191800	          0.00000000	         -0.29680900	          0.00000000	          0.00000000	          0.00000000	
          0.36050000	        -13.11844100	        455.43855000	        -19.18042800	          0.16068000	          0.00600000	         -0.17051800	          0.00000000	         -2.23169100	          0.00000000	          0.00000000	          0.00000000	          0.00000000	          0.62191800	          0.00000000	         -0.29680900	          0.00000000	          0.00000000	          0.00000000	
          0.36100000	        -12.96535900	        455.47724500	        -19.20804600	          0.16086900	          0.00600000	         -0.17050100	          0.00000000	         -2.23901400	          0.00000000	          0.00000000	          0.00000000	          0.00000000	          0.62191800	          0.00000000	         -0.29680900	          0.00000000	          0.00000000	          0.00000000	
